<?xml version="1.0" encoding="UTF-8"?><svg id="uuid-efaaa4f9-f02a-4855-8978-e31e1742973c" xmlns="http://www.w3.org/2000/svg" width="133.17" height="133.17" viewBox="0 0 133.17 133.17"><defs><style>.uuid-6cd92716-19fd-4b08-a599-693d8b5b61c0{stroke-width:0px;}.uuid-6cd92716-19fd-4b08-a599-693d8b5b61c0,.uuid-719192ce-69d8-438a-8f28-67c95fc3d8a3{fill:#000;}.uuid-719192ce-69d8-438a-8f28-67c95fc3d8a3{stroke:#fff;stroke-miterlimit:10;}</style></defs><path class="uuid-6cd92716-19fd-4b08-a599-693d8b5b61c0" d="M48.71,47.87c0-.67-.54-1.22-1.22-1.22s-1.22.55-1.22,1.22.55,1.22,1.22,1.22,1.22-.54,1.22-1.22Z"/><path class="uuid-719192ce-69d8-438a-8f28-67c95fc3d8a3" d="M66.59.5C30.09.5.5,30.09.5,66.59s29.59,66.09,66.09,66.09,66.09-29.59,66.09-66.09S103.09.5,66.59.5ZM51.19,89.22c-2.28,0-4.13-1.85-4.13-4.13s1.85-4.13,4.13-4.13,4.14,1.85,4.14,4.13-1.86,4.13-4.14,4.13ZM73.39,89.22c-2.28,0-4.13-1.85-4.13-4.13s1.86-4.13,4.13-4.13,4.14,1.85,4.14,4.13-1.85,4.13-4.14,4.13ZM84.14,69.2h-32.73v3.92h31.66l-1.19,4.35h-34.82v-25.72c-1.95-.22-3.48-1.85-3.48-3.87,0-2.16,1.76-3.92,3.91-3.92s3.92,1.76,3.92,3.92c0,.46-.09.9-.24,1.31h38.43l-5.46,20.02Z"/></svg>